<svg width="2348" height="1329" viewBox="0 0 2348 1329" fill="none" xmlns="http://www.w3.org/2000/svg">
<path fill-rule="evenodd" clip-rule="evenodd" d="M762 1160H2348V335H1071.39L762 1160Z" fill="#DADADA"/>
<path fill-rule="evenodd" clip-rule="evenodd" d="M293 1170.46L742.886 1328.99L1155.33 158.529L705.442 0L663.38 119.366L350.319 454.667L496.977 591.598L486.294 621.916L328.942 475L0 827.309L311.449 1118.1L293 1170.46ZM311.449 1118.1L338.421 1143.28L667.363 790.975L486.294 621.916L311.449 1118.1ZM663.38 119.366L496.977 591.598L688.74 770.642L1017.68 418.333L679.26 102.358L663.38 119.366Z" fill="#962E2E"/>
<path d="M1312.6 679H1227.8V647H1251L1186.2 545H1149.8V647H1177.8V679H1085V647H1113V411H1085V379H1177.8V411H1149.8V513H1183.4L1247.4 411H1223.8V379H1308.6V411H1288.6L1215.8 526.6L1292.2 647H1312.6V679ZM1348.58 647H1380.58V411H1348.58V379H1449.38V411H1417.38V647H1449.38V679H1348.58V647ZM1574.02 647H1602.02V679H1509.22V647H1537.22V411H1509.22V379H1592.42L1709.22 633.8V411H1681.22V379H1774.02V411H1746.02V679H1690.82L1574.02 424.6V647ZM1875.43 679L1833.83 635V423L1875.43 379H1988.23L2029.83 423V635L1988.23 679H1875.43ZM1891.03 644.6H1972.23L1993.03 623.4V434.6L1972.63 413.4H1891.43L1870.63 434.6V623.4L1891.03 644.6Z" fill="black"/>
<path d="M1149.8 1028H1177.8V1060H1085V1028H1113V792H1085V760H1168.2L1285 1014.8V792H1257V760H1349.8V792H1321.8V1060H1266.6L1149.8 805.6V1028ZM1409.61 760H1600.01V838.4H1568.01V792H1474.41V894H1568.01V926H1474.41V1028H1568.01V981.6H1600.01V1060H1409.61V1028H1437.61V792H1409.61V760ZM1639.91 792V760H1724.71V792H1695.11L1753.11 1016L1811.11 792H1793.91V760H1880.31V792H1862.71L1920.71 1016L1978.71 792H1949.51V760H2034.31V792H2015.51L1946.31 1060H1897.11L1837.11 828.4L1777.11 1060H1727.91L1658.31 792H1639.91ZM2250.45 854.4H2217.25V819.2L2193.25 794.4H2132.05L2111.25 815.6V870.8L2130.85 890.8H2214.05L2254.45 933.2V1016L2212.85 1060H2112.05L2070.45 1016V965.6H2103.65V1000.8L2128.05 1025.6H2197.25L2217.65 1004.4V944.8L2198.45 925.2H2115.25L2074.45 882.4V804L2116.05 760H2208.85L2250.45 804V854.4Z" fill="#962E2E"/>
</svg>
