<svg width="1156" height="1329" viewBox="0 0 1156 1329" fill="none" xmlns="http://www.w3.org/2000/svg">
<path fill-rule="evenodd" clip-rule="evenodd" d="M293 1170.46L742.886 1328.99L1155.33 158.529L705.442 0L663.38 119.366L350.319 454.667L496.977 591.598L486.294 621.916L328.942 475L0 827.309L311.449 1118.1L293 1170.46ZM311.449 1118.1L338.421 1143.28L667.363 790.975L486.294 621.916L311.449 1118.1ZM663.38 119.366L496.977 591.598L688.74 770.642L1017.68 418.333L679.26 102.358L663.38 119.366Z" fill="#962E2E"/>
<path d="M447.05 977H351.65V941H377.75L304.85 826.25H263.9V941H295.4V977H191V941H222.5V675.5H191V639.5H295.4V675.5H263.9V790.25H301.7L373.7 675.5H347.15V639.5H442.55V675.5H420.05L338.15 805.55L424.1 941H447.05V977Z" fill="#1E1E1E"/>
<path d="M612.9 556H644.4V592H540V556H571.5V290.5H540V254.5H633.6L765 541.15V290.5H733.5V254.5H837.9V290.5H806.4V592H744.3L612.9 305.8V556Z" fill="#962E2E"/>
</svg>
